<svg xmlns="http://www.w3.org/2000/svg" width="40.823" height="42.928" viewBox="0 0 40.823 42.928"><defs><style>.a{fill:#ffdf00;}.b{fill:#312227;}.c{fill:#fe0;}.d{fill:#b6a39e;}</style></defs><g transform="translate(-403.642 -996.536)"><path class="a" d="M703.818,403.709a5.987,5.987,0,0,1-5.831,6.133H668.827A5.988,5.988,0,0,1,663,403.709V373.046a5.987,5.987,0,0,1,5.831-6.133h29.161a5.987,5.987,0,0,1,5.831,6.133Z" transform="translate(-259.354 629.623)"/><g transform="translate(409.638 1005.135)"><path class="b" d="M680.351,397.666s1.71.18,2.6.18c8.22,0,14.885-5.3,14.885-11.834s-6.664-11.833-14.885-11.833-14.885,5.3-14.885,11.833c0,4.052,2.56,7.626,6.464,9.759a11.139,11.139,0,0,1-3.479,5.543s-.291.516.584.324S677.949,399.507,680.351,397.666Z" transform="translate(-668.062 -374.178)"/><path class="c" d="M675.964,381.474h-4.446a.762.762,0,0,0,0,1.525h1.445v5.368a.748.748,0,0,0,.218.524.726.726,0,0,0,.52.218h.162a.731.731,0,0,0,.518-.217.751.751,0,0,0,.218-.526V383h1.365a.762.762,0,0,0,0-1.525Z" transform="translate(-667.566 -372.838)"/><path class="c" d="M684.759,387.692h-2.065V382.21a.821.821,0,1,0-1.642,0v5.909a.815.815,0,0,0,.013.133.708.708,0,0,0-.013.133.689.689,0,0,0,.687.692h3.021a.692.692,0,0,0,0-1.385Z" transform="translate(-665.676 -372.854)"/><path class="c" d="M690.615,387.944l-2.3-3.05,2.082-2.1a.731.731,0,0,0,0-1.027.717.717,0,0,0-1.022,0l-2.578,2.6V382.21a.821.821,0,1,0-1.642,0v6.09a.821.821,0,1,0,1.642,0v-1.878l.469-.472,2.179,2.883a.73.73,0,0,0,1.027.147A.743.743,0,0,0,690.615,387.944Z" transform="translate(-664.923 -372.854)"/><path class="c" d="M681.557,388.142l-2.216-6.109-.007-.006a1.087,1.087,0,0,0-1.038-.643,1.058,1.058,0,0,0-1.077.768.92.92,0,0,0-.043.1L675,388.142a.741.741,0,0,0,.45.943.733.733,0,0,0,.938-.453l.376-1.084h3.033l.378,1.084a.731.731,0,0,0,.936.453A.74.74,0,0,0,681.557,388.142Zm-4.315-1.978,1.018-2.93c.012,0,.023,0,.033,0l1.018,2.926Z" transform="translate(-666.796 -372.854)"/><path class="d" d="M678.833,378.432h-.552l-.578.925v-.925h-.467v2.014h.467v-.957l.578.925h.552l-.618-.992Z" transform="translate(-666.377 -373.397)"/><path class="d" d="M681.837,378.432h-.553l-.578.925v-.925h-.468v2.014h.468v-.957l.578.925h.553l-.618-.992Z" transform="translate(-665.826 -373.397)"/><path class="d" d="M679.778,380.415h.466L680,378.879a.538.538,0,0,0-1.061,0l-.25,1.536h.468L679.2,380h.521Zm-.527-.768.09-.711a.148.148,0,0,1,.248,0l.09.71Z" transform="translate(-666.111 -373.397)"/><path class="d" d="M682.781,380.415h.468L683,378.879a.539.539,0,0,0-1.062,0l-.249,1.536h.468l.052-.411h.52Zm-.527-.768.091-.711a.147.147,0,0,1,.247,0l.091.71Z" transform="translate(-665.559 -373.397)"/><path class="d" d="M684.68,379.021a.733.733,0,0,0-.779-.589.667.667,0,0,0-.734.589v.836h.007l-.007.014a.667.667,0,0,0,.734.589.733.733,0,0,0,.779-.589l-.012-.014h.012Zm-.779.991a.27.27,0,0,1-.266-.219V379.1a.27.27,0,0,1,.266-.219.353.353,0,0,1,.311.219v.695A.353.353,0,0,1,683.9,380.012Z" transform="translate(-665.288 -373.397)"/></g></g></svg>