<svg xmlns="http://www.w3.org/2000/svg" width="196.316" height="81.5" viewBox="0 0 196.316 81.5"><defs><style>.a,.b{fill:#bbb;}.a{font-size:20px;font-family:NanumGothicBold, Nanum Gothic;}</style></defs><g transform="translate(-72 -1834)"><g transform="translate(34 -260)"><text class="a" transform="translate(188.316 2130)"><tspan x="-45.49" y="0">DACHAM</tspan><tspan x="-37.6" y="23">다참가구</tspan></text><g transform="translate(-45 1974.5)"><path class="b" d="M2.071,2.071V78.394H23.834A27.375,27.375,0,0,0,51.178,51.05V29.414A27.375,27.375,0,0,0,23.834,2.071H2.071M0,0H23.834A29.414,29.414,0,0,1,53.249,29.414V51.05A29.414,29.414,0,0,1,23.834,80.465H0Z" transform="translate(83 120.535)"/><path class="b" d="M299.88,200.26a40.38,40.38,0,1,1,0-80.76,1.035,1.035,0,1,1,0,2.071,38.309,38.309,0,0,0,0,76.619,1.035,1.035,0,1,1,0,2.071Z" transform="translate(-124.287)"/><path class="b" d="M-2.465,23.716A1.035,1.035,0,0,1-3.5,22.681V-2.465A1.035,1.035,0,0,1-2.465-3.5,1.035,1.035,0,0,1-1.429-2.465V22.681A1.035,1.035,0,0,1-2.465,23.716Z" transform="translate(109.279 125.219)"/><path class="b" d="M4.635,14.841a1.036,1.036,0,0,1-.95-.622l-7.1-16.27a1.035,1.035,0,0,1,.535-1.363,1.035,1.035,0,0,1,1.363.535l7.1,16.27a1.036,1.036,0,0,1-.948,1.45Z" transform="translate(105.138 185.568)"/><path class="b" d="M-2.465,14.841a1.034,1.034,0,0,1-.322-.052,1.035,1.035,0,0,1-.662-1.306L1.876-2.787a1.035,1.035,0,0,1,1.306-.662,1.035,1.035,0,0,1,.662,1.306l-5.325,16.27A1.036,1.036,0,0,1-2.465,14.841Z" transform="translate(92.121 185.568)"/><path class="b" d="M-2.465,69.569A1.035,1.035,0,0,1-3.5,68.534v-71A1.035,1.035,0,0,1-2.465-3.5,1.035,1.035,0,0,1-1.429-2.465v71A1.035,1.035,0,0,1-2.465,69.569Z" transform="translate(162.231 126.994)"/><path class="b" d="M19.279-1.429H-2.465A1.035,1.035,0,0,1-3.5-2.465,1.035,1.035,0,0,1-2.465-3.5H19.279a1.035,1.035,0,0,1,1.035,1.035A1.035,1.035,0,0,1,19.279-1.429Z" transform="translate(140.488 153.618)"/><path class="b" d="M27.858-1.429H-2.465A1.035,1.035,0,0,1-3.5-2.465,1.035,1.035,0,0,1-2.465-3.5H27.858a1.035,1.035,0,0,1,1.035,1.035A1.035,1.035,0,0,1,27.858-1.429Z" transform="translate(87.535 184.384)"/><path class="b" d="M145.415,208.622l7.58,13.128H137.835Zm3.993,11.057-3.993-6.916-3.993,6.916Z" transform="translate(-38.614 -62.757)"/></g></g></g></svg>